<svg xmlns="http://www.w3.org/2000/svg" viewBox="0 0 124 41.1">
  <defs>
    <style>
      .cls-1 {
        opacity: 0.76;
      }

      .cls-2, .cls-3 {
        fill: none;
        stroke: #7c7e7e;
        stroke-linecap: round;
        stroke-linejoin: round;
        stroke-miterlimit: 10;
      }

      .cls-2 {
        stroke-width: 4px;
      }

      .cls-3 {
        stroke-width: 3px;
      }
    </style>
  </defs>
  <g id="Group_1027" data-name="Group 1027" class="cls-1">
    <path id="Path_8199" data-name="Path 8199" class="cls-2" d="M25,39.1a6.957,6.957,0,0,1,7-7,7.185,7.185,0,0,1,5.2,2.3A16.311,16.311,0,0,1,35,26.1a17,17,0,1,1,34,0,13.425,13.425,0,0,1-.4,3.5A11.8,11.8,0,0,1,76,27.1a12.035,12.035,0,0,1,12,12"/>
    <path id="Path_8200" data-name="Path 8200" class="cls-2" d="M38.5,36.4"/>
    <line id="Line_40" data-name="Line 40" class="cls-2" x2="23" transform="translate(2 39.1)"/>
    <line id="Line_41" data-name="Line 41" class="cls-2" x2="17" transform="translate(88 39.1)"/>
    <line id="Line_42" data-name="Line 42" class="cls-2" x2="11" transform="translate(111 39.1)"/>
    <path id="Path_8201" data-name="Path 8201" class="cls-3" d="M28.6,14.1A16.761,16.761,0,0,1,43,1.5"/>
  </g>
</svg>
