<svg xmlns="http://www.w3.org/2000/svg" viewBox="0 0 1039.593 217.612">
  <defs>
    <style>
      .cls-1 {
        fill: #9a9a9a;
        opacity: 0.02;
      }
    </style>
  </defs>
  <path id="Path_8367" data-name="Path 8367" class="cls-1" d="M1039.593,108.806h0a21.7,21.7,0,0,0-21.761-21.761H497.541a21.7,21.7,0,0,1-21.761-21.761h0a21.7,21.7,0,0,1,21.761-21.761h89.023a21.7,21.7,0,0,0,21.761-21.761h0A21.7,21.7,0,0,0,586.564,0H117.708A21.7,21.7,0,0,0,95.947,21.761h0a21.7,21.7,0,0,0,21.761,21.761h89.023a21.7,21.7,0,0,1,21.761,21.761h0a21.7,21.7,0,0,1-21.761,21.761H21.761A21.7,21.7,0,0,0,0,108.806H0a21.7,21.7,0,0,0,21.761,21.761H638a21.7,21.7,0,0,1,21.761,21.761h0A21.7,21.7,0,0,1,638,174.09H453.029a21.7,21.7,0,0,0-21.761,21.761h0a21.7,21.7,0,0,0,21.761,21.761H936.722a21.7,21.7,0,0,0,21.761-21.761h0a21.7,21.7,0,0,0-21.761-21.761h-7.913a21.7,21.7,0,0,1-21.761-21.761h0a21.7,21.7,0,0,1,21.761-21.761h89.023A21.7,21.7,0,0,0,1039.593,108.806Z"/>
</svg>
