<svg xmlns="http://www.w3.org/2000/svg" viewBox="0 0 673.324 216.995">
  <defs>
    <style>
      .cls-1 {
        fill: #fffffc;
        opacity: 0.23;
      }
    </style>
  </defs>
  <path id="Path_8364" data-name="Path 8364" class="cls-1" d="M1011,36.166h0A36.062,36.062,0,0,0,974.834,0C625.25,0,415.955,25.526,339.813,72.332,316.177,86.861,489.039,217,840.034,217A36.062,36.062,0,0,0,876.2,180.829h0a36.062,36.062,0,0,0-36.166-36.166H826.883A36.062,36.062,0,0,1,790.717,108.5h0a36.062,36.062,0,0,1,36.166-36.166H974.834A36.062,36.062,0,0,0,1011,36.166Z" transform="translate(-337.676)"/>
</svg>
