<svg xmlns="http://www.w3.org/2000/svg" viewBox="0 0 1935.011 908.132">
  <defs>
    <style>
      .cls-1 {
        fill: #0e6efd;
      }

      .cls-2 {
        opacity: 0.23;
      }

      .cls-3, .cls-5 {
        opacity: 0.5;
      }

      .cls-4, .cls-5 {
        fill: #fffffc;
      }

      .cls-6 {
        opacity: 0.11;
      }

      .cls-7 {
        fill: #f4f4f4;
      }

      .cls-8 {
        fill: #4957b8;
        fill-rule: evenodd;
      }

      .cls-9 {
        opacity: 0.15;
      }

      .cls-10 {
        fill: #fff;
      }

      .cls-11 {
        fill: #497391;
      }

      .cls-12 {
        opacity: 0.2;
      }

      .cls-13 {
        fill: rgba(73,115,145,0.71);
      }

      .cls-14 {
        opacity: 0.12;
      }

      .cls-15 {
        fill: #26a9e0;
      }
    </style>
  </defs>
  <g id="Group_2017" data-name="Group 2017" transform="translate(7 -82.078)">
    <g id="Group_2016" data-name="Group 2016">
      <g id="Group_2015" data-name="Group 2015">
        <g id="Group_2014" data-name="Group 2014" transform="translate(-7 -7553)">
          <path id="Path_8079" data-name="Path 8079" class="cls-1" d="M9837.34,6458.078l1935.011,3.26v865.306H9837.34Z" transform="translate(-9837.34 1177)"/>
          <g id="Group_1894" data-name="Group 1894">
            <g id="Group_1006" data-name="Group 1006" class="cls-2" transform="translate(113.016 7858.268)">
              <g id="Group_1005" data-name="Group 1005" class="cls-3" transform="translate(0 3.933)">
                <path id="Path_8188" data-name="Path 8188" class="cls-4" d="M453.39,347.415a14.491,14.491,0,0,0-14.552-14.421h1.18a14.421,14.421,0,1,1,0-28.842h-1.18c8,0,14.552-7.079,14.552-15.076S446.835,274,438.838,274H324.652c-8,0-14.552,7.079-14.552,15.076s6.555,15.076,14.552,15.076h28.055a14.421,14.421,0,1,1,0,28.842H324.652a14.421,14.421,0,1,0,0,28.842H324c8,0,14.552,5.768,14.552,13.765S331.993,389.366,324,389.366h.655c-8,0-14.552,7.079-14.552,15.076s6.555,15.076,14.552,15.076H438.838c8,0,14.552-7.079,14.552-15.076s-6.555-15.076-14.552-15.076h3.277c-8,0-14.552-5.768-14.552-13.765s6.555-13.765,14.552-13.765h-3.277A14.491,14.491,0,0,0,453.39,347.415Z" transform="translate(96.435 81.276)"/>
                <path id="Path_8189" data-name="Path 8189" class="cls-4" d="M153.647,15.454A12.37,12.37,0,0,0,141.586,3H55.061A12.37,12.37,0,0,0,43,15.454,12.37,12.37,0,0,0,55.061,27.909H69.875a11.8,11.8,0,1,1,0,23.6H46.409a12.461,12.461,0,0,0,0,24.909h-.524a11.8,11.8,0,1,1,0,23.6H12.061a12.461,12.461,0,0,0,0,24.909H141.586a12.461,12.461,0,0,0,0-24.909h2.753a11.8,11.8,0,1,1,0-23.6h-2.753a12.461,12.461,0,0,0,0-24.909h.918a11.8,11.8,0,1,1,0-23.6h-.918A12.37,12.37,0,0,0,153.647,15.454Z" transform="translate(0 -3)"/>
              </g>
              <path id="Path_8190" data-name="Path 8190" class="cls-5" d="M159.68,348.732a15.778,15.778,0,0,1-15.732,15.732H109.732A15.778,15.778,0,0,1,94,348.732h0A15.778,15.778,0,0,1,109.732,333h34.217a15.778,15.778,0,0,1,15.732,15.732Z" transform="translate(29.232 103.556)"/>
              <path id="Path_8191" data-name="Path 8191" class="cls-5" d="M272.68,52.732a15.778,15.778,0,0,1-15.732,15.732H222.732A15.778,15.778,0,0,1,207,52.732h0A15.778,15.778,0,0,1,222.732,37h34.217A15.778,15.778,0,0,1,272.68,52.732Z" transform="translate(64.373 11.506)"/>
              <path id="Path_8192" data-name="Path 8192" class="cls-5" d="M350.68,15.732a15.778,15.778,0,0,1-15.732,15.732H300.732A15.778,15.778,0,0,1,285,15.732h0A15.778,15.778,0,0,1,300.732,0h34.217A15.778,15.778,0,0,1,350.68,15.732Z" transform="translate(88.629 0)"/>
            </g>
            <g id="Group_1301" data-name="Group 1301" class="cls-6" transform="translate(1411.39 8373.39)">
              <circle id="Ellipse_3939" data-name="Ellipse 3939" class="cls-7" cx="37.81" cy="37.81" r="37.81" transform="translate(0 0)"/>
              <g id="Group_1300" data-name="Group 1300" transform="translate(13.616 14.038)">
                <path id="Path_8688" data-name="Path 8688" class="cls-8" d="M7.8,25.822S11.519,7.847,27.015,5.058s18.6,6.2,18.905,9.917S43.131,27.992,29.8,26.752C15.548,24.273,7.8,25.822,7.8,25.822Z" transform="translate(2.758 -4.53)"/>
                <path id="Path_8689" data-name="Path 8689" class="cls-8" d="M42.534,13.706S38.815,31.682,23.319,34.471s-18.6-6.2-18.905-9.917S7.2,11.537,20.53,12.776C34.476,15.256,42.534,13.706,42.534,13.706Z" transform="translate(-4.393 12.545)"/>
              </g>
            </g>
            <g id="Group_1335" data-name="Group 1335" class="cls-9" transform="translate(1776.21 7835.21)">
              <circle id="Ellipse_3940" data-name="Ellipse 3940" class="cls-10" cx="32.09" cy="32.09" r="32.09" transform="translate(0 0)"/>
              <g id="Group_1334" data-name="Group 1334" transform="translate(11.479 13.827)">
                <g id="Group_1303" data-name="Group 1303" transform="translate(1.044 1.044)">
                  <g id="Group_1302" data-name="Group 1302">
                    <path id="Path_8690" data-name="Path 8690" class="cls-11" d="M29.063,41.181H17.584L8.452,34.4,4.8,23.441,8.452,12.483,17.845,5.7H29.324l9.392,6.783,3.652,10.957L38.716,34.4ZM17.845,40.4H29.063l9.131-6.522,3.392-10.7-3.392-10.7L29.063,5.961H17.845l-8.87,6.783-3.652,10.7,3.392,10.7Z" transform="translate(-4.8 -5.7)"/>
                  </g>
                </g>
                <g id="Group_1304" data-name="Group 1304" transform="translate(12.523)">
                  <circle id="Ellipse_3941" data-name="Ellipse 3941" class="cls-11" cx="1.304" cy="1.304" r="1.304"/>
                </g>
                <g id="Group_1305" data-name="Group 1305" transform="translate(24.002)">
                  <circle id="Ellipse_3942" data-name="Ellipse 3942" class="cls-11" cx="1.304" cy="1.304" r="1.304"/>
                </g>
                <g id="Group_1306" data-name="Group 1306" transform="translate(12.523 34.699)">
                  <circle id="Ellipse_3943" data-name="Ellipse 3943" class="cls-11" cx="1.304" cy="1.304" r="1.304"/>
                </g>
                <g id="Group_1307" data-name="Group 1307" transform="translate(3.392 28.176)">
                  <circle id="Ellipse_3944" data-name="Ellipse 3944" class="cls-11" cx="1.304" cy="1.304" r="1.304"/>
                </g>
                <g id="Group_1308" data-name="Group 1308" transform="translate(0 17.48)">
                  <circle id="Ellipse_3945" data-name="Ellipse 3945" class="cls-11" cx="1.304" cy="1.304" r="1.304"/>
                </g>
                <g id="Group_1309" data-name="Group 1309" transform="translate(3.392 6.783)">
                  <circle id="Ellipse_3946" data-name="Ellipse 3946" class="cls-11" cx="1.304" cy="1.304" r="1.304"/>
                </g>
                <g id="Group_1310" data-name="Group 1310" transform="translate(36.786 17.48)">
                  <circle id="Ellipse_3947" data-name="Ellipse 3947" class="cls-11" cx="1.304" cy="1.304" r="1.304"/>
                </g>
                <g id="Group_1311" data-name="Group 1311" transform="translate(33.133 6.783)">
                  <circle id="Ellipse_3948" data-name="Ellipse 3948" class="cls-11" cx="1.304" cy="1.304" r="1.304"/>
                </g>
                <g id="Group_1312" data-name="Group 1312" transform="translate(24.002 34.699)">
                  <circle id="Ellipse_3949" data-name="Ellipse 3949" class="cls-11" cx="1.304" cy="1.304" r="1.304"/>
                </g>
                <g id="Group_1314" data-name="Group 1314" transform="translate(4.696 7.566)">
                  <g id="Group_1313" data-name="Group 1313">
                    <path id="Path_8691" data-name="Path 8691" class="cls-11" d="M36.463,30.637,30.2,28.028l-8.349,2.609-7.566-2.609L6.2,30.637V8.2l8.088,2.609L21.853,8.2h0L30.2,10.809,36.463,8.2ZM14.027,27.245h0l7.566,2.609,8.349-2.609,5.74,2.348V8.983l-5.74,2.348L21.593,8.722l-7.566,2.609h0L6.461,8.983v20.61Z" transform="translate(-6.2 -8.2)"/>
                  </g>
                </g>
                <g id="Group_1316" data-name="Group 1316" transform="translate(1.304 18.523)">
                  <g id="Group_1315" data-name="Group 1315">
                    <rect id="Rectangle_750" data-name="Rectangle 750" class="cls-11" width="36.786" height="0.522"/>
                  </g>
                </g>
                <g id="Group_1318" data-name="Group 1318" transform="translate(4.435 0.522)">
                  <g id="Group_1317" data-name="Group 1317">
                    <path id="Path_8692" data-name="Path 8692" class="cls-11" d="M15.492,41.5l-1.3-9.653L6.1,23.5l8.088-8.349,1.3-9.653,6.522,6.783L27.232,5.5l3.392,9.914L26.971,23.5l3.652,8.349L27.232,41.5,21.753,34.72Zm6.783-7.044,4.7,6,2.87-8.349L26.45,24.545ZM14.709,31.85l1.3,8.349,5.74-6L17.84,24.284Zm3.131-8.088,3.913,9.914,4.435-9.914-4.435-9.914Zm-10.957,0,7.3,7.566,3.131-7.566-3.131-7.827Zm7.827-8.349,2.87,7.3,3.913-9.653-5.74-6Zm7.566-2.348L26.71,22.98l3.392-7.3L26.971,6.8Z" transform="translate(-6.1 -5.5)"/>
                  </g>
                </g>
                <g id="Group_1320" data-name="Group 1320" transform="translate(28.176 10.436)">
                  <g id="Group_1319" data-name="Group 1319">
                    <path id="Path_8693" data-name="Path 8693" class="cls-11" d="M15.722,26l-.522-.522,6-7.827-6-8.088.522-.261,6.261,8.349Z" transform="translate(-15.2 -9.3)"/>
                  </g>
                </g>
                <g id="Group_1321" data-name="Group 1321" transform="translate(11.218 9.131)">
                  <circle id="Ellipse_3950" data-name="Ellipse 3950" class="cls-11" cx="1.304" cy="1.304" r="1.304"/>
                </g>
                <g id="Group_1322" data-name="Group 1322" transform="translate(18.784 6.783)">
                  <circle id="Ellipse_3951" data-name="Ellipse 3951" class="cls-11" cx="1.304" cy="1.304" r="1.304"/>
                </g>
                <g id="Group_1323" data-name="Group 1323" transform="translate(26.566 8.693)">
                  <circle id="Ellipse_3952" data-name="Ellipse 3952" class="cls-11" cx="1.304" cy="1.304" r="1.304" transform="translate(0 1.845) rotate(-45)"/>
                </g>
                <g id="Group_1324" data-name="Group 1324" transform="translate(3.392 17.219)">
                  <circle id="Ellipse_3953" data-name="Ellipse 3953" class="cls-11" cx="1.304" cy="1.304" r="1.304" transform="translate(0 0)"/>
                </g>
                <g id="Group_1325" data-name="Group 1325" transform="translate(14.349 17.219)">
                  <circle id="Ellipse_3954" data-name="Ellipse 3954" class="cls-11" cx="1.304" cy="1.304" r="1.304" transform="translate(0 0)"/>
                </g>
                <g id="Group_1326" data-name="Group 1326" transform="translate(23.48 17.219)">
                  <circle id="Ellipse_3955" data-name="Ellipse 3955" class="cls-11" cx="1.304" cy="1.304" r="1.304" transform="translate(0 0)"/>
                </g>
                <g id="Group_1327" data-name="Group 1327" transform="translate(33.133 17.48)">
                  <circle id="Ellipse_3956" data-name="Ellipse 3956" class="cls-11" cx="1.304" cy="1.304" r="1.304"/>
                </g>
                <g id="Group_1328" data-name="Group 1328" transform="translate(27.133 25.567)">
                  <circle id="Ellipse_3957" data-name="Ellipse 3957" class="cls-11" cx="1.304" cy="1.304" r="1.304"/>
                </g>
                <g id="Group_1329" data-name="Group 1329" transform="translate(40.699 31.829)">
                  <circle id="Ellipse_3958" data-name="Ellipse 3958" class="cls-11" cx="1.826" cy="1.826" r="1.826"/>
                </g>
                <g id="Group_1330" data-name="Group 1330" transform="translate(18.389 27.794)">
                  <circle id="Ellipse_3959" data-name="Ellipse 3959" class="cls-11" cx="1.304" cy="1.304" r="1.304" transform="translate(0 1.015) rotate(-22.904)"/>
                </g>
                <g id="Group_1331" data-name="Group 1331" transform="translate(10.8 25.162)">
                  <circle id="Ellipse_3960" data-name="Ellipse 3960" class="cls-11" cx="1.304" cy="1.304" r="1.304" transform="translate(0 1.015) rotate(-22.904)"/>
                </g>
                <g id="Group_1333" data-name="Group 1333" transform="translate(34.368 29.429)">
                  <g id="Group_1332" data-name="Group 1332">
                    <rect id="Rectangle_751" data-name="Rectangle 751" class="cls-11" width="0.522" height="8.87" transform="translate(0 0.464) rotate(-62.715)"/>
                  </g>
                </g>
              </g>
            </g>
            <g id="Group_1336" data-name="Group 1336" class="cls-12" transform="translate(1693.396 8168.39)">
              <circle id="Ellipse_3961" data-name="Ellipse 3961" class="cls-10" cx="34.911" cy="34.911" r="34.911" transform="translate(0.184 0)"/>
              <path id="Path_8694" data-name="Path 8694" class="cls-10" d="M69.722,31.221V38.6h0c-.284.284,0,.284-.284.568A35.021,35.021,0,0,1,58.085,61.023a34.288,34.288,0,0,1-19.016,8.515c-.284,0-.568,0-.568.284h-7.38a3.086,3.086,0,0,0-1.419-.284,35.828,35.828,0,0,1-21-11.353A33.434,33.434,0,0,1,.184,39.168c0-.284,0-.568-.284-.568v-7.38h0c.284-.284,0-.284.284-.568A35.021,35.021,0,0,1,11.537,8.8,34.288,34.288,0,0,1,30.553.284c.284,0,.568,0,.568-.284H38.5c.284.284.284,0,.568.284A35.021,35.021,0,0,1,60.923,11.637a34.288,34.288,0,0,1,8.515,19.016C69.438,30.937,69.438,31.221,69.722,31.221ZM41.055,29.8h0c-.284,0-.284-.284-.568-.284-4.825-5.109-13.056-5.96-18.449-1.7a15.109,15.109,0,0,0-5.96,11.353c-.851,12.488,10.785,19.584,21.287,15.611,6.244-2.554,9.366-7.38,9.366-13.908.284-8.515,0-17.03,0-25.828v-.851A2.408,2.408,0,0,0,44.461,12.2a2.738,2.738,0,0,0-3.406,2.838V29.8Z" transform="translate(0 0)"/>
              <path id="Path_8695" data-name="Path 8695" class="cls-13" d="M30.59,21.925V7.166A2.738,2.738,0,0,1,34,4.328a2.408,2.408,0,0,1,2.271,1.987v26.68c0,6.528-3.406,11.353-9.366,13.908C16.4,51.16,5.046,43.78,5.613,31.292,5.9,26.75,7.6,22.777,11.574,19.938a13.9,13.9,0,0,1,18.449,1.7.991.991,0,0,0,.568.284Zm.284,10.5a3.6,3.6,0,0,0-.284-1.7,9.549,9.549,0,0,0-6.244-7.947,8.73,8.73,0,0,0-9.65,1.7c-3.122,2.554-3.974,5.96-3.406,9.934A9.878,9.878,0,0,0,25.2,42.077C28.887,40.374,30.59,36.968,30.874,32.427Z" transform="translate(10.465 7.877)"/>
              <path id="Path_8696" data-name="Path 8696" class="cls-10" d="M27.29,20.818c-.284,4.257-1.7,7.663-5.677,9.65A9.878,9.878,0,0,1,7.706,22.8c-.568-3.974.284-7.38,3.406-9.934a9.918,9.918,0,0,1,9.65-1.7,9.549,9.549,0,0,1,6.244,7.947A3.6,3.6,0,0,0,27.29,20.818Z" transform="translate(14.049 19.486)"/>
            </g>
            <g id="Group_1337" data-name="Group 1337" class="cls-6" transform="translate(1001.2 8098.2)">
              <circle id="Ellipse_3962" data-name="Ellipse 3962" class="cls-10" cx="32.9" cy="32.9" r="32.9" transform="translate(0 0)"/>
              <circle id="Ellipse_3963" data-name="Ellipse 3963" class="cls-11" cx="12.507" cy="12.507" r="12.507" transform="translate(15.226 25.015)"/>
              <g id="Group_1338" data-name="Group 1338">
                <circle id="Ellipse_3964" data-name="Ellipse 3964" class="cls-11" cx="4.35" cy="4.35" r="4.35" transform="translate(41.329 9.245)"/>
                <circle id="Ellipse_3965" data-name="Ellipse 3965" class="cls-11" cx="3.807" cy="3.807" r="3.807" transform="translate(23.927 12.236)"/>
                <circle id="Ellipse_3966" data-name="Ellipse 3966" class="cls-11" cx="3.807" cy="3.807" r="3.807" transform="translate(39.426 46.223)"/>
                <rect id="Rectangle_752" data-name="Rectangle 752" class="cls-11" width="2.991" height="9.788" transform="translate(26.374 18.217)"/>
                <rect id="Rectangle_753" data-name="Rectangle 753" class="cls-11" width="2.991" height="18.217" transform="translate(43.316 14.466) rotate(42.053)"/>
                <rect id="Rectangle_754" data-name="Rectangle 754" class="cls-11" width="2.991" height="18.217" transform="translate(44.416 48.876) rotate(135)"/>
              </g>
            </g>
            <g id="Group_1341" data-name="Group 1341" class="cls-14" transform="translate(1190.488 7717.488)">
              <circle id="Ellipse_3968" data-name="Ellipse 3968" class="cls-10" cx="38.812" cy="38.812" r="38.812" transform="translate(0 0)"/>
              <g id="Group_1340" data-name="Group 1340" transform="translate(17.355 13.884)">
                <path id="Path_8703" data-name="Path 8703" class="cls-11" d="M5.5,28.241V13.726a3.625,3.625,0,0,1,1.893-3.471A47.5,47.5,0,0,0,12.757,7.1a34.418,34.418,0,0,0,3.471,1.893c-2.524,1.578-4.733,2.84-6.942,4.1-.316.316-.631.316-.631.631v9.466c-.316,0-.316.316-.631.631-.631,1.262-1.578,2.524-2.209,3.787C5.816,27.926,5.816,28.241,5.5,28.241Z" transform="translate(-5.5 1.42)"/>
                <path id="Path_8704" data-name="Path 8704" class="cls-11" d="M27.044,21.737V23.63c-.316.316-.631.316-.947.631-.947.316-1.578.947-2.524,1.262V23.63a27.749,27.749,0,0,0-3.155,1.893A31.531,31.531,0,0,1,16,28.048c0-.316,0-.316.316-.631.947-1.578,1.578-2.84,2.524-4.418,0-.316.316-.316.316-.631a27.75,27.75,0,0,1,3.155-1.893c-.631-.316-.947-.631-1.578-.947.316,0,.316-.631.631-.947.316-.631.947-1.262.947-1.893.631.316.947.631,1.578.947V13.849c.316,0,.631-.631.631-.947a28.807,28.807,0,0,1,2.524-4.1.977.977,0,0,1,.316.631V17.32a.309.309,0,0,0-.316.316c-.631.947-.947,1.578-1.578,2.524-.316.631-.947,1.578-1.262,2.209v.316h.316c.316-.316.631-.316.947-.631C25.782,22.368,26.413,21.737,27.044,21.737Z" transform="translate(17.132 5.084)"/>
                <path id="Path_8705" data-name="Path 8705" class="cls-11" d="M24,15.393c.947-.316,1.578-.947,2.524-1.262.316-.316.631-.316.947-.631v7.889a3.471,3.471,0,0,1-1.893,3.155c-1.578.947-3.155,1.893-5.049,2.84-1.578.947-3.155,1.893-4.418,2.524H15.8v-.316c.631-1.262,1.262-2.209,1.893-3.471.316-.631.947-.947.631-1.578C19.9,23.6,21.8,22.651,23.373,21.7c.316-.316.316-.316.316-.631A36.237,36.237,0,0,0,24,15.393Z" transform="translate(16.701 15.214)"/>
                <path id="Path_8706" data-name="Path 8706" class="cls-11" d="M25.106,17.431a2.41,2.41,0,0,1-.631,1.578c-.631,1.262-1.262,2.209-1.893,3.471V22.8c-3.155,1.893-6.311,3.471-9.466,5.364a.309.309,0,0,0-.316.316v-.631c.947-1.578,1.578-2.84,2.524-4.418a.437.437,0,0,0,0-.631A27.75,27.75,0,0,1,18.48,20.9c.316-.316.316-.316,0-.631s-.631-.316-.947-.631c0-.316.316-.631.631-.947.316-.631.947-1.262.947-1.893.947.631,1.893.947,2.84,1.578.316.316.316,0,.631,0A12.988,12.988,0,0,0,25.106,17.431Z" transform="translate(10.235 22.327)"/>
                <path id="Path_8707" data-name="Path 8707" class="cls-11" d="M9.555,26.968A27.75,27.75,0,0,0,6.4,25.075V24.76c1.262-2.209,2.524-4.418,3.787-6.942,0-.316.316-.316.316-.631.316,0,.316-.316.631-.316.631-.316.631-.316,0-.631v-.316A7.909,7.909,0,0,0,12.4,13.716l.316-.316,1.893.947h.631a6.9,6.9,0,0,0,1.578-.947c0,.316,0,.316-.316.631-.631,1.262-1.262,2.209-1.893,3.471.316.631,0,.947,0,1.578a51.053,51.053,0,0,1-5.68,3.155.316.316,0,0,0,0,.631,7.909,7.909,0,0,1,2.209,1.262c-.631.631-.631,1.262-1.262,1.893C9.555,26.022,9.24,26.337,9.555,26.968Z" transform="translate(-3.56 14.999)"/>
                <path id="Path_8708" data-name="Path 8708" class="cls-11" d="M11.924,28.353A11.07,11.07,0,0,1,9.4,26.775v-.631l2.84-4.733a1.159,1.159,0,0,0,.316-.947c.947-.631,1.893-.947,2.84-1.578.316,0,.316-.316,0-.316-.316-.316-.947-.316-1.262-.631a1.639,1.639,0,0,1,.631-1.262,6.9,6.9,0,0,1,.947-1.578h.316a12.79,12.79,0,0,1,2.84,1.578c-.631.947-.947,1.578-1.578,2.524,0,.316,0,.316.316.631.631.316.947.631,1.578.947a2.392,2.392,0,0,1-1.262.631A.309.309,0,0,0,17.6,21.1c-.316-.316-.631-.316-.947-.631s-.631,0-.631.316a6.6,6.6,0,0,1-1.262,1.893V23.3c-.631.316-1.578.947-2.209,1.262.316.316.631.316.947.631,0,.316,0,.316-.316.631C12.871,26.775,12.24,27.406,11.924,28.353Z" transform="translate(2.906 18.663)"/>
                <path id="Path_8709" data-name="Path 8709" class="cls-11" d="M5.5,17.249a.679.679,0,0,0,.631-.631c.631-1.262,1.578-2.524,2.209-3.787,0-.316.316-.316.631-.631l.316.316c.947.631,1.893.947,2.84,1.578-.316,0-.316.316-.316.631-.316.631-.947,1.578-1.262,2.209-.316-.316-.947-.316-1.262-.631v3.471c-.316,0-.316.316-.631.316-.631,1.262-1.578,2.524-2.209,4.1a.309.309,0,0,1-.316.316v-.316A25.887,25.887,0,0,1,5.5,17.249Z" transform="translate(-5.5 12.412)"/>
                <path id="Path_8710" data-name="Path 8710" class="cls-11" d="M12.14,7.855A51.052,51.052,0,0,1,17.82,4.7a18.1,18.1,0,0,1-1.262,2.209c-.631.947-.947,1.893-1.578,2.84,0,.316-.316.316,0,.631a17.614,17.614,0,0,0-2.524,1.578,1.639,1.639,0,0,0,1.262.631V12.9a11.07,11.07,0,0,0-1.578,2.524A12.79,12.79,0,0,0,9.3,13.851v-.316a40.23,40.23,0,0,1,2.209-3.787A3.383,3.383,0,0,0,12.14,7.855Z" transform="translate(2.691 -3.753)"/>
                <path id="Path_8711" data-name="Path 8711" class="cls-11" d="M5.5,19.333a.309.309,0,0,0,.316-.316c.631-1.262,1.578-2.524,2.209-4.1,0-.316.316-.316.631-.316v2.209c1.262-.631,2.524-1.578,3.787-2.209,0,.316,0,.316-.316.631C10.864,17.44,9.6,19.649,8.34,22.173v.316c-1.262-.631-2.209-1.262-2.524-2.524C5.5,19.964,5.5,19.649,5.5,19.333Z" transform="translate(-5.5 17.585)"/>
                <path id="Path_8712" data-name="Path 8712" class="cls-11" d="M11.3,10.711c-.316-.316,0-.316,0-.631a12.79,12.79,0,0,0,1.578-2.84,13.72,13.72,0,0,0,1.262-2.209c.316-.316.631-.316,1.262-.631h.316c.947.631,1.578.947,2.524,1.578a12.79,12.79,0,0,0-1.578,2.84c-.316,0-.631-.316-.947-.316h-.631A23.535,23.535,0,0,1,11.3,10.711Z" transform="translate(6.69 -4.4)"/>
                <path id="Path_8713" data-name="Path 8713" class="cls-11" d="M21.733,7.9a6.9,6.9,0,0,0,1.578.947l-1.893,3.787c-.316.631-.947,1.262-.947,1.893A34.42,34.42,0,0,1,17,16.42c0-.316,0-.316.316-.631.947-1.578,1.578-2.84,2.524-4.418V10.74h0a.309.309,0,0,0,.316-.316C20.787,9.478,21.1,8.847,21.733,7.9Z" transform="translate(19.287 3.144)"/>
                <path id="Path_8714" data-name="Path 8714" class="cls-11" d="M14.6,16.8c0,.316-.316.631-.316.947L11.44,22.48a.437.437,0,0,0,0,.631A12.79,12.79,0,0,0,8.6,21.533a1.1,1.1,0,0,1,.316-.631,13.719,13.719,0,0,0,1.262-2.209c.631.631.947.316,1.578,0A11.013,11.013,0,0,1,14.6,16.8Z" transform="translate(1.182 22.327)"/>
                <path id="Path_8715" data-name="Path 8715" class="cls-11" d="M12.449,18.693c-.316.631-.947,1.578-1.262,2.209a1.1,1.1,0,0,1-.316.631C9.609,20.9,8.662,20.271,7.4,19.64c0-.316.316-.631.631-.947A6.6,6.6,0,0,1,9.293,16.8C9.924,17.116,11.187,18.062,12.449,18.693Z" transform="translate(-1.405 22.327)"/>
                <path id="Path_8716" data-name="Path 8716" class="cls-11" d="M14.511,5.7a2.683,2.683,0,0,1-.947,1.578C13.249,8.855,12.3,9.8,11.671,11.064v.316h0c-.631-.316-1.262-.316-1.578-.631-.631-.631-1.262-.631-1.893-1.262,1.893-.947,3.471-2.209,5.364-3.155C13.88,6.331,14.2,6.016,14.511,5.7Z" transform="translate(0.32 -1.598)"/>
                <path id="Path_8717" data-name="Path 8717" class="cls-11" d="M12.8,7.84c.631-.947.947-2.209,1.893-2.84.947.631,2.209,1.262,3.155,1.893A6.9,6.9,0,0,1,16.9,8.471a1.639,1.639,0,0,0-.631,1.262C15.009,9.1,14.062,8.471,12.8,7.84Z" transform="translate(10.235 -3.107)"/>
                <path id="Path_8718" data-name="Path 8718" class="cls-11" d="M13.9,8.44a1.639,1.639,0,0,1,.631-1.262c.316-.631.631-.947.947-1.578a27.75,27.75,0,0,1,3.155,1.893h-.316a12.79,12.79,0,0,0-1.578,2.84Z" transform="translate(12.606 -1.813)"/>
                <path id="Path_8719" data-name="Path 8719" class="cls-11" d="M18,13.564c0-.631.631-1.262.947-1.893A33.259,33.259,0,0,0,21.155,8.2a3.194,3.194,0,0,1,1.262,2.209c-.947,1.262-1.578,2.84-2.524,4.1-.316.316-.316.631-.631.947V13.564c0-.316,0-.316-.316-.316S18.316,13.564,18,13.564Z" transform="translate(21.443 3.791)"/>
                <path id="Path_8720" data-name="Path 8720" class="cls-11" d="M17.478,6.7a12.79,12.79,0,0,1,2.84,1.578c0,.316,0,.631-.316.631-.316.631-.947,1.578-1.262,2.209A12.79,12.79,0,0,0,15.9,9.54,4.362,4.362,0,0,1,17.478,6.7Z" transform="translate(16.916 0.557)"/>
                <path id="Path_8721" data-name="Path 8721" class="cls-11" d="M16.949,18.8c.316.316,0,.316,0,.631-.947,1.578-1.578,2.84-2.524,4.418v.631c-.316.316-.631.316-1.262,0-.316-.316-.631-.316-1.262-.631l.947-1.893c.316-.316.316-.631.631-.947h.631A17.341,17.341,0,0,1,16.949,18.8Z" transform="translate(8.295 26.638)"/>
                <path id="Path_8722" data-name="Path 8722" class="cls-11" d="M19.633,7.778h0a14.818,14.818,0,0,0-1.893,2.84c-.947-.631-1.893-.947-2.84-1.578A12.79,12.79,0,0,1,16.478,6.2h.316A28.438,28.438,0,0,1,19.633,7.778Z" transform="translate(14.761 -0.52)"/>
                <path id="Path_8723" data-name="Path 8723" class="cls-11" d="M16.7,10.04c.316-.631.947-1.578,1.262-2.209,0-.316.316-.316.316-.631.631.316,1.578.947,2.209,1.262,0,.316-.316.631-.316.947a13.72,13.72,0,0,0-1.262,2.209A13.358,13.358,0,0,0,16.7,10.04Z" transform="translate(18.641 1.635)"/>
                <path id="Path_8724" data-name="Path 8724" class="cls-11" d="M14.771,20.478c0,.316-.316.631-.631.947l-.947,1.893A6.6,6.6,0,0,1,11.3,22.055c.316-.316.316-.631.631-1.262l.947-1.893C13.509,19.531,14.14,19.847,14.771,20.478Z" transform="translate(7.001 26.854)"/>
                <path id="Path_8725" data-name="Path 8725" class="cls-11" d="M21.655,15.487c-.631,0-1.262.631-1.893.947-.316.316-.631.316-.947.631,0,0-.316.316-.316,0v-.316c.316-.631.947-1.578,1.262-2.209.631-.947.947-1.578,1.578-2.524a.309.309,0,0,1,.316-.316Z" transform="translate(22.52 11.335)"/>
                <path id="Path_8726" data-name="Path 8726" class="cls-11" d="M10.2,21.24c.316-.631.947-1.578,1.262-2.209,0-.316.316-.316.316-.631.316,0,.316,0,.316.316.631.316.947.631,1.578.947v.316c-.631.947-.947,1.578-1.578,2.524A19.328,19.328,0,0,0,10.2,21.24Z" transform="translate(4.63 25.776)"/>
                <path id="Path_8727" data-name="Path 8727" class="cls-11" d="M10.7,21.54c.631-.947.947-1.578,1.578-2.524V18.7l1.893.947-.947,1.893c-.316.316-.316.631-.631,1.262C11.962,22.486,11.331,21.855,10.7,21.54Z" transform="translate(5.708 26.423)"/>
                <path id="Path_8728" data-name="Path 8728" class="cls-11" d="M17.4,10.655a18.1,18.1,0,0,1,1.262-2.209c0-.316.316-.631.316-.947l1.893.947c-.316.947-.947,1.578-1.262,2.524,0,.316-.316.316-.631.316C18.347,11.287,18.031,10.971,17.4,10.655Z" transform="translate(20.15 2.282)"/>
                <path id="Path_8729" data-name="Path 8729" class="cls-11" d="M9.062,6.9c.631.631,1.262.631,1.578.947.631.316.947.631,1.578.947l-.947.947A34.419,34.419,0,0,1,7.8,7.847C8.116,7.531,8.747,7.216,9.062,6.9Z" transform="translate(-0.543 0.989)"/>
                <path id="Path_8730" data-name="Path 8730" class="cls-11" d="M18.155,18.564c-.947.631-2.209,1.262-3.155,1.893,0-.316,0-.631.316-.631l1.893-2.84a10.505,10.505,0,0,0,.947-1.893c1.262-.631,2.209-1.262,3.471-1.893,0,.316,0,.631-.316.631-.947,1.578-1.578,2.84-2.524,4.418C18.155,17.933,18.155,18.249,18.155,18.564Z" transform="translate(14.977 14.568)"/>
                <path id="Path_8731" data-name="Path 8731" class="cls-11" d="M18.378,11l1.893.947-.947,1.893c-.316.316-.316.631-.631.947L16.8,13.84a2.392,2.392,0,0,0,.631-1.262C17.747,11.947,18.378,11.631,18.378,11Z" transform="translate(18.856 9.826)"/>
                <path id="Path_8732" data-name="Path 8732" class="cls-11" d="M15.278,20.7a6.9,6.9,0,0,1-1.578-.947l.947-1.893a1.639,1.639,0,0,0,.631-1.262l1.893.947-.947,1.893C15.593,19.755,15.278,20.071,15.278,20.7Z" transform="translate(12.174 21.896)"/>
                <path id="Path_8733" data-name="Path 8733" class="cls-11" d="M9.947,20.82c-.316,0-.631.316-.947.316,0-.631.316-.947.631-1.578.631-1.262,1.262-2.209,1.893-3.471,0-.316.316-.316.316-.631,1.893-.947,3.471-2.209,5.364-3.155l-.947,1.893a9.87,9.87,0,0,0-1.578,3.155s-.316.316,0,.316a1.639,1.639,0,0,1-1.262.631c-.316,0-.631.316-1.262.631A10.068,10.068,0,0,1,9.947,20.82Z" transform="translate(2.044 12.628)"/>
                <path id="Path_8734" data-name="Path 8734" class="cls-11" d="M10.155,17.533C9.209,16.9,7.947,16.271,7,15.64c.316-.631.947-1.578,1.262-2.209,0-.316.316-.316.316-.631a27.749,27.749,0,0,1,3.155,1.893.309.309,0,0,0-.316.316,7.909,7.909,0,0,1-1.262,2.209Z" transform="translate(-2.267 13.706)"/>
                <path id="Path_8735" data-name="Path 8735" class="cls-11" d="M9.3,16.293a7.909,7.909,0,0,1,2.209-1.262,1.639,1.639,0,0,1,1.262-.631l2.84,1.893a.309.309,0,0,1,.316.316c-.631.316-.631.947-.947,1.578a2.392,2.392,0,0,0-.631,1.262C12.771,18.5,10.878,17.24,9.3,16.293Z" transform="translate(2.691 17.154)"/>
                <path id="Path_8736" data-name="Path 8736" class="cls-11" d="M14.109,21.1s-.316-.316-.316,0c-.316-.631-.947-.631-1.578-.947-.316,0-.316-.316-.316-.631.631-.947.947-1.578,1.578-2.524h.631c.947-.631,2.209-1.262,3.155-1.893v.631c-.631,1.262-1.578,2.524-2.209,3.787A3.373,3.373,0,0,0,14.109,21.1Z" transform="translate(8.295 18.663)"/>
                <path id="Path_8737" data-name="Path 8737" class="cls-11" d="M14.155,17.747A27.749,27.749,0,0,1,11,19.64v-.631a6.6,6.6,0,0,1,1.262-1.893c0-.316.316-.316.631-.316a4.356,4.356,0,0,0,1.262.947Z" transform="translate(6.355 22.327)"/>
                <path id="Path_8738" data-name="Path 8738" class="cls-11" d="M11.778,7.2c1.262.631,2.209,1.262,3.471,1.893-.316.316-.631.947-.947,1.262-.316.631-.631.947-.631,1.578-1.262-.631-2.209-1.262-3.471-1.893A12.79,12.79,0,0,1,11.778,7.2Z" transform="translate(4.63 1.635)"/>
                <path id="Path_8739" data-name="Path 8739" class="cls-11" d="M18.855,11.009A13.03,13.03,0,0,0,22.326,8.8v.631c-.947,1.578-1.578,2.84-2.524,4.418,0,.316-.316.316-.316.631a1.1,1.1,0,0,1-.631.316c.316.316.947.316,1.262.947A6.6,6.6,0,0,0,18.224,17c-.316.316-.947.316-1.262.947-.631-.316-.947-.631-1.262-.631A.309.309,0,0,1,16.016,17c.316-.631.631-.947.631-1.578.631-1.262,1.262-2.209,1.893-3.471C18.855,11.324,19.171,11.009,18.855,11.009Z" transform="translate(16.485 5.084)"/>
                <path id="Path_8740" data-name="Path 8740" class="cls-11" d="M19.322,9.5c.947.631,1.893.947,2.84,1.578,0,.316,0,.316-.316.631a34.487,34.487,0,0,0-2.524,4.733,1.639,1.639,0,0,0-.631,1.262c-1.262.631-2.524,1.578-3.787,2.209A13.72,13.72,0,0,0,12.7,21.175c-.316,0,0-.316,0-.316.947-1.578,1.578-3.155,2.524-4.418,0-.316.316-.316.316-.631,1.262-.631,2.524-1.578,3.787-2.209-.631-.316-.947-.631-1.578-.947a2.392,2.392,0,0,1,.631-1.262A10.5,10.5,0,0,1,19.322,9.5Z" transform="translate(9.708 6.593)"/>
                <path id="Path_8741" data-name="Path 8741" class="cls-11" d="M19.415,11.4c0,.316,0,.316-.316.631-.947,1.578-1.578,3.155-2.524,4.418,0,0-.316.316,0,.316-1.262.947-2.84,1.578-4.1,2.524-.631.316-.947.631-1.578.947-.316,0,0-.316,0-.316a9.87,9.87,0,0,0,1.578-3.155c.316-.631.947-1.262.947-1.893A37.177,37.177,0,0,1,19.415,11.4Z" transform="translate(5.828 10.688)"/>
                <path id="Path_8742" data-name="Path 8742" class="cls-11" d="M11.3,10.64c0-.631.316-.947.631-1.578.316-.316.631-.947.947-1.262.947.631,2.209,1.262,3.155,1.893-.316.947-1.262,1.893-1.578,2.84A27.748,27.748,0,0,1,11.3,10.64Z" transform="translate(7.001 2.928)"/>
                <path id="Path_8743" data-name="Path 8743" class="cls-11" d="M12.3,11.24c.316-.947,1.262-1.893,1.578-2.84.947.631,2.209,1.262,3.155,1.893-.316.631-.631.947-.947,1.578a2.392,2.392,0,0,0-.631,1.262C14.509,12.5,13.247,11.871,12.3,11.24Z" transform="translate(9.157 4.222)"/>
                <path id="Path_8744" data-name="Path 8744" class="cls-11" d="M13.3,11.84a1.639,1.639,0,0,1,.631-1.262c.316-.631.631-.947.947-1.578.947.631,1.893.947,2.84,1.578a6.9,6.9,0,0,1-.947,1.578,1.639,1.639,0,0,0-.631,1.262C15.193,12.787,14.247,12.471,13.3,11.84Z" transform="translate(11.312 5.515)"/>
                <path id="Path_8745" data-name="Path 8745" class="cls-11" d="M12.6,22.82l.947-1.893a23.535,23.535,0,0,1,2.209-3.787v-.631c1.262-.631,2.524-1.578,3.787-2.209a1.159,1.159,0,0,1-.316.947c-.631.947-1.262,2.209-1.893,3.155A2.41,2.41,0,0,0,16.7,19.98c-.316.316-.631.316-1.262.631a.309.309,0,0,1,.316.316v.316a6.9,6.9,0,0,1-.947,1.578c-.316.316-.316.631-.631.947C13.547,23.451,13.231,23.135,12.6,22.82Z" transform="translate(9.803 16.939)"/>
                <path id="Path_8746" data-name="Path 8746" class="cls-11" d="M14.5,17.6a1.639,1.639,0,0,1,.631-1.262,34.487,34.487,0,0,0,2.524-4.733c0-.316.316-.316.316-.631a.592.592,0,0,0,.947,0A17.614,17.614,0,0,0,21.442,9.4c.316.316,0,.316,0,.316-.631,1.262-1.262,2.209-1.893,3.471a2.41,2.41,0,0,0-.631,1.578.309.309,0,0,1-.316.316c-.316,0-.316,0-.631.316A21.224,21.224,0,0,1,14.5,17.6Z" transform="translate(13.899 6.377)"/>
                <path id="Path_8747" data-name="Path 8747" class="cls-11" d="M13.9,21.273c0-.631.316-.947.631-1.578.631-.947,1.262-2.209,1.893-3.155,0-.316.316-.631.316-.947.947-.631,2.209-1.262,3.155-1.893,0,.631-.631,1.262-.947,1.893l-1.893,2.84c0,.316-.316.316-.316.631A6.871,6.871,0,0,1,13.9,21.273Z" transform="translate(12.606 15.645)"/>
                <path id="Path_8748" data-name="Path 8748" class="cls-11" d="M16.2,13.109a4.356,4.356,0,0,1,1.262-.947A6.6,6.6,0,0,0,19.355,10.9a.309.309,0,0,1,.316.316,2.683,2.683,0,0,1-.947,1.578,2.392,2.392,0,0,0-.631,1.262Z" transform="translate(17.563 9.61)"/>
                <path id="Path_8749" data-name="Path 8749" class="cls-11" d="M13.1,19.14c.316,0,.316-.631.631-.947a6.9,6.9,0,0,1,.947-1.578V16.3c.631.316.947.631,1.578.947,0,.316-.316.631-.631,1.262L14.678,20.4A5.54,5.54,0,0,1,13.1,19.14Z" transform="translate(10.881 21.25)"/>
              </g>
            </g>
            <g id="Group_1344" data-name="Group 1344" class="cls-14" transform="translate(904.39 8413.39)">
              <circle id="Ellipse_3971" data-name="Ellipse 3971" class="cls-10" cx="64.91" cy="64.91" r="64.91" transform="translate(0 0)"/>
              <path id="Path_8777" data-name="Path 8777" class="cls-11" d="M6.5,82.52V6c.528.528.528.528,1.055.528L44.5,43.468c.528.528.528.528,0,1.055q-18.206,19-38,38Z" transform="translate(27.802 25.663)"/>
              <path id="Path_8778" data-name="Path 8778" class="cls-15" d="M40.235,6.9V61.783a.517.517,0,0,1-.528-.528L22.82,44.368l-9.5-9.5c-.528-.528-.528-.528,0-1.055C22.292,24.843,31.263,16.4,39.707,7.428A.517.517,0,0,0,40.235,6.9Z" transform="translate(55.283 29.513)"/>
            </g>
            <g id="Group_1345" data-name="Group 1345" class="cls-14" transform="translate(1718 8394)">
              <circle id="Ellipse_3972" data-name="Ellipse 3972" class="cls-10" cx="45.3" cy="45.3" r="45.3" transform="translate(0 0)"/>
              <path id="Path_8779" data-name="Path 8779" class="cls-11" d="M6.9,3.7H31.944c.737,0,1.1,0,1.473.737,9.207,9.207,14.363,19.888,14.732,33.146,0,1.1,0,1.841-1.473,1.841H36c-.737,0-1.1.368-1.1-.737,0-9.576-4.051-16.941-10.68-23.2A68.653,68.653,0,0,0,8,4.8c-.368-.737-.737-.737-1.1-1.1Z" transform="translate(18.512 9.927)"/>
              <path id="Path_8780" data-name="Path 8780" class="cls-11" d="M9.4,10.1c1.473,2.578,2.946,5.156,4.051,7.366,3.683,7,7.734,14,11.417,20.624.737,1.1.368,1.473-.368,1.841-4.788,2.946-9.576,6.261-14.363,9.207-.368,0-.368.368-.737.368,0-12.522,0-25.78,0-39.407Z" transform="translate(25.22 27.098)"/>
            </g>
          </g>
        </g>
      </g>
    </g>
  </g>
</svg>
